<?xml version="1.0" encoding="UTF-8"?>
<svg width="1200pt" height="1200pt" version="1.1" viewBox="0 0 1200 1200" xmlns="http://www.w3.org/2000/svg">
 <path d="m187.55 37.5c-61.688 0-112.41 51.047-112.41 112.73v899.9c0 61.688 50.766 112.36 112.41 112.36h675.14c61.688 0 112.36-50.672 112.36-112.36v-515.68l58.969-59.016 58.219-57.938v-0.046874c0.65625-0.70313 1.3594-1.4062 1.9688-2.2031 41.578-43.781 40.875-113.95-2.0625-156.89-31.406-31.406-77.438-40.312-117.05-26.578l-0.09375-81.609c-0.046875-61.688-50.672-112.73-112.36-112.73zm0 75h675.14c21.422 0 37.359 16.312 37.359 37.734l0.09375 140.9v0.09375l-470.86 470.86h-0.046874c-7.0781 7.0312-11.062 16.594-11.062 26.578v105.98c0.046874 9.9375 3.9844 19.5 11.062 26.531 7.0781 6.9844 16.641 10.922 26.578 10.875h105.98c9.9375 0.09375 19.5-3.8438 26.578-10.828l311.63-311.81v440.72c0 21.422-15.938 37.641-37.359 37.641h-675.14c-21.422 0-37.359-16.219-37.359-37.641l0.046874-899.9c0-21.422 15.938-37.734 37.359-37.734zm112.64 187.6c-9.9844-0.046875-19.594 3.8906-26.672 10.969s-11.016 16.641-10.969 26.672c0 9.9375 4.0312 19.453 11.062 26.438 7.0781 7.0312 16.641 10.922 26.578 10.922h412.5c20.578-0.09375 37.266-16.781 37.359-37.359 0.046875-20.719-16.641-37.594-37.359-37.641zm712.4 0c9.5156 0.046875 19.031 3.8906 26.531 11.344 14.859 14.859 14.906 37.547 0.28125 52.5-0.09375 0.14062-0.1875 0.23438-0.28125 0.375h-0.09375l-53.016-53.016 0.1875-0.1875-0.046875 0.046875 0.98438-0.98438c7.3125-6.7969 16.406-10.172 25.5-10.125zm-79.594 64.219 53.016 53.016-26.438 26.438c-0.98438 0.9375-1.9219 1.9688-2.7656 3l-410.53 410.26h-53.109v-52.828l412.74-412.78zm-632.81 160.82c-9.9844-0.046875-19.594 3.9375-26.672 10.969-7.0781 7.0781-11.016 16.688-10.969 26.672 0 9.9375 4.0312 19.5 11.062 26.484 7.0781 6.9844 16.641 10.922 26.578 10.875h187.4c20.625-0.09375 37.266-16.734 37.359-37.359 0.046875-9.9375-3.8906-19.5-10.875-26.531-6.9844-7.0781-16.547-11.062-26.484-11.109z"/>
</svg>
