<?xml version="1.0" encoding="UTF-8"?>
<svg width="1200pt" height="1200pt" version="1.1" viewBox="0 0 1200 1200" xmlns="http://www.w3.org/2000/svg">
 <path d="m657.6 900.96c-139.8 0-154.56 18.84-182.76-87.602-13.801-52.078-14.52-52.68-57.359-103.32-42.359-50.16-90.359-107.04-90.359-203.88 0-149.64 121.8-271.44 271.44-271.44h2.3984c149.64 0 271.44 121.8 271.44 271.44 0 125.52-80.16 183.12-126.96 249.84-26.398 37.68-21.961 144.96-87.719 144.96zm-108.96-57.602m-1.8008-2.3984h105.72c4.8008-8.1602 10.32-28.801 14.039-42.961 16.559-62.398 21.238-69.602 69.48-126.72 40.922-48.48 76.199-90.238 76.199-165.24 0-116.52-94.801-211.44-211.44-211.44h-2.3984c-116.52 0-211.44 94.801-211.44 211.44 0 75 35.281 116.76 76.199 165.24 48.121 57 52.922 64.199 69.48 126.72 3.7188 14.16 9.2383 34.922 14.039 42.961zm82.441-656.76v-65.641c0-16.559-13.441-30-30-30s-30 13.441-30 30v65.641c0 16.559 13.441 30 30 30s30-13.441 30-30zm270.84 625.68c11.762-11.762 11.762-30.719 0-42.48l-46.441-46.441c-11.762-11.762-30.719-11.762-42.48 0s-11.762 30.719 0 42.48l46.441 46.441c5.8789 5.8789 13.559 8.7617 21.238 8.7617 7.6797 0 15.359-2.8789 21.238-8.7617zm119.64-300.84c0-16.559-13.441-30-30-30h-65.641c-16.559 0-30 13.441-30 30 0 16.559 13.441 30 30 30h65.641c16.559 0 30-13.441 30-30zm-166.08-212.04 46.441-46.441c11.762-11.762 11.762-30.719 0-42.48s-30.719-11.762-42.48 0l-46.441 46.441c-11.762 11.762-11.762 30.719 0 42.48 5.8789 5.8789 13.559 8.7617 21.238 8.7617 7.6797 0 15.359-2.8789 21.238-8.7617zm-511.45 513 46.441-46.441c11.762-11.762 11.762-30.719 0-42.48-11.762-11.762-30.719-11.762-42.48 0l-46.441 46.441c-11.762 11.762-11.762 30.719 0 42.48 5.8789 5.8789 13.559 8.7617 21.238 8.7617 7.6797 0 15.359-2.8789 21.238-8.7617zm-36.48-300.84c0-16.559-13.441-30-30-30h-65.641c-16.559 0-30 13.441-30 30s13.441 30 30 30h65.641c16.559 0 30-13.441 30-30zm82.801-212.04c11.762-11.762 11.762-30.719 0-42.48l-46.441-46.441c-11.762-11.762-30.719-11.762-42.48 0s-11.762 30.719 0 42.48l46.441 46.441c5.8789 5.8789 13.559 8.7617 21.238 8.7617 7.6797 0 15.359-2.8789 21.238-8.7617zm283.2 720.48c0-16.559-13.441-30-30-30h-84c-16.559 0-30 13.441-30 30 0 16.559 13.441 30 30 30h84c16.559 0 30-13.441 30-30zm17.281-63.84c0-16.559-13.441-30-30-30h-118.56c-16.559 0-30 13.441-30 30 0 16.559 13.441 30 30 30h118.56c16.559 0 30-13.441 30-30zm-36.238 127.56c0-16.559-13.441-30-30-30h-46.199c-16.559 0-30 13.441-30 30 0 16.559 13.441 30 30 30h46.199c16.559 0 30-13.441 30-30z"/>
</svg>
