<?xml version="1.0" encoding="UTF-8"?>
<svg width="1200pt" height="1200pt" version="1.1" viewBox="0 0 1200 1200" xmlns="http://www.w3.org/2000/svg">
 <path d="m1021.9 1012.5h-843.74c-27.375 0-51.75-14.25-65.25-37.875s-13.125-51.75 0.75-75.375l389.63-658.87c20.25-34.5 56.625-55.125 96.75-55.125s76.5 20.625 96.75 55.125l389.63 659.26c13.875 23.625 14.25 51.75 0.75 75.375s-37.875 37.875-65.25 37.875zm-421.87-752.63c-6.375 0-22.5 1.875-32.25 18.375l-389.63 659.26h843.74l-389.63-659.26c-9.75-16.5-25.875-18.375-32.25-18.375zm37.5 452.63v-262.5c0-20.625-16.875-37.5-37.5-37.5s-37.5 16.875-37.5 37.5v262.5c0 20.625 16.875 37.5 37.5 37.5s37.5-16.875 37.5-37.5zm-10.875 139.13c6.75-7.125 10.875-16.875 10.875-26.625s-4.125-19.5-10.875-26.625c-14.25-13.875-39-13.875-53.25 0-6.75 7.125-10.875 16.875-10.875 26.625s4.125 19.5 10.875 26.625c7.125 6.75 16.875 10.875 26.625 10.875s19.5-4.125 26.625-10.875z"/>
</svg>
